<?xml version="1.0" standalone="no"?>
<!DOCTYPE svg PUBLIC "-//W3C//DTD SVG 20010904//EN"
 "http://www.w3.org/TR/2001/REC-SVG-20010904/DTD/svg10.dtd">
<svg version="1.0" xmlns="http://www.w3.org/2000/svg"
 width="458.000000pt" height="451.000000pt" viewBox="0 0 458.000000 451.000000"
 preserveAspectRatio="xMidYMid meet">

<g transform="translate(0.000000,451.000000) scale(0.100000,-0.100000)"
fill="#000000" stroke="none">
<path d="M0 2255 l0 -2255 2290 0 2290 0 0 2255 0 2255 -2290 0 -2290 0 0
-2255z m2085 2196 c3 -5 2 -12 -3 -15 -5 -3 -9 1 -9 9 0 17 3 19 12 6z m45
-64 c0 -2 -9 -3 -20 -4 -12 -1 -20 4 -20 13 0 12 4 12 20 4 11 -6 20 -12 20
-13z m-41 -61 c10 -12 8 -13 -8 -9 -12 3 -21 9 -21 14 0 14 16 11 29 -5z m-41
-15 c12 -10 22 -25 22 -32 -1 -9 -4 -7 -11 5 -9 14 -13 16 -20 5 -4 -7 -12
-10 -16 -5 -4 5 -2 11 5 13 10 4 10 8 1 19 -16 20 -6 17 19 -5z m137 -91 c3
-5 1 -10 -4 -10 -6 0 -11 5 -11 10 0 6 2 10 4 10 3 0 8 -4 11 -10z m-195 -30
c0 -5 -5 -10 -11 -10 -5 0 -7 5 -4 10 3 6 8 10 11 10 2 0 4 -4 4 -10z m-20
-61 c0 -15 -18 -19 -23 -6 -3 8 1 14 9 14 8 0 14 -4 14 -8z m97 -5 c-3 -3 -12
-4 -19 -1 -8 3 -5 6 6 6 11 1 17 -2 13 -5z m-183 -79 c-5 -12 -10 -13 -20 -4
-19 15 -18 19 6 19 13 0 18 -5 14 -15z m220 -20 c3 -8 1 -15 -4 -15 -6 0 -10
7 -10 15 0 8 2 15 4 15 2 0 6 -7 10 -15z m-249 -5 c-3 -5 -11 -10 -16 -10 -6
0 -7 5 -4 10 3 6 11 10 16 10 6 0 7 -4 4 -10z m220 -30 c3 -5 1 -10 -4 -10 -6
0 -11 5 -11 10 0 6 2 10 4 10 3 0 8 -4 11 -10z m-1320 -378 c-7 -8 -45 10 -40
19 4 5 14 3 25 -3 11 -7 17 -14 15 -16z m53 -20 c-10 -2 -18 -7 -18 -11 0 -4
-7 -16 -16 -27 -14 -18 -15 -18 -4 4 9 18 8 22 -5 22 -24 0 -18 18 8 22 28 5
61 -5 35 -10z m-68 -49 c0 -7 -4 -13 -9 -13 -5 0 -11 6 -14 13 -3 8 1 14 9 14
8 0 14 -6 14 -14z m850 -289 c37 -13 48 -23 56 -49 8 -24 7 -32 -1 -29 -6 3
-11 -5 -12 -16 -1 -11 3 -20 9 -20 6 0 9 -3 5 -6 -3 -3 -2 -17 3 -30 7 -17 6
-22 -3 -18 -8 3 -13 -4 -13 -15 0 -11 4 -17 8 -15 4 3 4 -6 -2 -20 -5 -14 -6
-26 -1 -26 12 0 7 -38 -7 -52 -7 -7 -12 -22 -12 -35 0 -13 -5 -23 -11 -23 -5
0 -7 -4 -4 -10 3 -5 0 -7 -8 -4 -9 3 -17 -6 -24 -28 -5 -18 -15 -32 -21 -31
-6 2 -20 -9 -30 -22 -23 -29 -56 -32 -107 -11 -19 8 -35 12 -35 9 0 -3 -10 5
-23 19 -13 14 -28 27 -33 29 -16 7 -55 69 -43 69 8 0 8 4 -1 15 -7 8 -9 15 -4
15 5 0 3 4 -4 9 -8 4 -16 26 -19 47 -3 22 -9 43 -14 48 -5 6 -4 15 2 23 7 7 8
13 4 13 -4 0 -2 7 5 15 10 12 10 15 -1 15 -11 0 -11 2 1 10 11 7 17 4 22 -10
5 -15 17 -20 42 -20 28 0 37 6 55 36 21 35 30 63 11 34 -15 -23 -12 3 5 44 9
20 20 34 26 31 5 -4 9 -3 8 2 -1 4 -1 11 0 16 2 13 126 7 171 -9z m-635 -389
c30 -32 42 -52 43 -77 3 -62 1 -141 -3 -148 -3 -4 -7 -25 -11 -46 -3 -22 -10
-43 -14 -49 -5 -5 -10 -23 -12 -39 -4 -34 -28 -53 -54 -41 -11 5 -21 9 -24 9
-12 2 -71 71 -82 97 -7 16 -16 29 -20 29 -4 0 -7 10 -7 23 1 12 -2 36 -6 53
-7 30 -6 31 32 37 50 8 68 40 45 75 -22 34 -17 103 9 124 26 22 45 13 104 -47z
m645 -5 c0 -5 -5 -10 -11 -10 -5 0 -7 5 -4 10 3 6 8 10 11 10 2 0 4 -4 4 -10z"/>
</g>
</svg>
